<?xml version="1.0" standalone="no"?>
<?xml-stylesheet type="text/css" href="hex.css"?>
<!DOCTYPE svg  PUBLIC '-//W3C//DTD SVG 1.1//EN'  'http://www.w3.org/Graphics/SVG/1.1/DTD/svg11.dtd'>
	<svg xmlns="http://www.w3.org/2000/svg">
      <!-- Define an SVG graphic which will be reduced in size and reused multiple times. -->
     <g id="parentGraphic">
			<polygon points="69,0 138,40 138,120 69,160 0,120 0,40" transform="translate(450, 0) scale(0.5)" style="fill:#cccccc; stroke:#000000;stroke-width:1"/>
	 </g>
	  <use href="#parentGraphic" transform="translate(80, 0)" />
      <use href="#parentGraphic" transform="translate(160, 0)" />
      <use href="#parentGraphic" transform="translate(240, 0)" />
      <!-- Second row -->
      <use href="#parentGraphic" transform="translate(-40, 70)" />
      <use href="#parentGraphic" transform="translate(40, 70)" />
      <use href="#parentGraphic" transform="translate(120, 70)" />
      <use href="#parentGraphic" transform="translate(200, 70)" />
      <use href="#parentGraphic" transform="translate(280, 70)" />
      <!-- Third row -->
      <use href="#parentGraphic" transform="translate(-80, 140)" />
      <use href="#parentGraphic" transform="translate(0, 140)" />
      <use href="#parentGraphic" transform="translate(80, 140)" />
      <use href="#parentGraphic" transform="translate(160, 140)" />
      <use href="#parentGraphic" transform="translate(240, 140)" />
      <use href="#parentGraphic" transform="translate(320, 140)" />
      
      <!-- Fourth row -->
      <use href="#parentGraphic" transform="translate(-120, 210)" />
      <use href="#parentGraphic" transform="translate(-40, 210)" />
      <use href="#parentGraphic" transform="translate(40, 210)" />
      <use href="#parentGraphic" transform="translate(120, 210)" />
      <use href="#parentGraphic" transform="translate(200, 210)" />
      <use href="#parentGraphic" transform="translate(280, 210)" />
      <use href="#parentGraphic" transform="translate(360, 210)" />

        <!-- Seventh row -->
      <use href="#parentGraphic" transform="translate(0, 420)" />
      <use href="#parentGraphic" transform="translate(80, 420)" />
      <use href="#parentGraphic" transform="translate(160, 420)" />
      <use href="#parentGraphic" transform="translate(240, 420)" />
     
      <!-- Sixth row -->
      <use href="#parentGraphic" transform="translate(-40, 350)" />
      <use href="#parentGraphic" transform="translate(40, 350)" />
      <use href="#parentGraphic" transform="translate(120, 350)" />
      <use href="#parentGraphic" transform="translate(200, 350)" />
      <use href="#parentGraphic" transform="translate(280, 350)" />
            <!-- Fifth row -->
      <use href="#parentGraphic" transform="translate(-80, 280)" />
      <use href="#parentGraphic" transform="translate(0, 280)" />
      <use href="#parentGraphic" transform="translate(80, 280)" />
      <use href="#parentGraphic" transform="translate(160, 280)" />
      <use href="#parentGraphic" transform="translate(240, 280)" />
      <use href="#parentGraphic" transform="translate(320, 280)" />
</svg>